<svg width="30" height="30" viewBox="0 0 30 30" fill="none" xmlns="http://www.w3.org/2000/svg">
<g clip-path="url(#clip0_2_2)">
<circle cx="15" cy="15" r="15" fill="#E8310C"/>
<path d="M9.46875 14.4107C9.74436 11.16 9.834 8.53029 11.0353 5.97572C11.6632 4.64061 13.2751 3.72461 14.6263 3.7364C15.9774 3.74819 17.383 3.89575 17.8476 4.3307C18.3121 4.76564 16.114 10.875 16.378 15.4686C16.6352 19.9451 19.6453 23.9822 18.4888 25.321C17.3322 26.6598 15.2975 26.4498 14.1633 26.2865C12.9354 26.1097 11.7004 25.1612 10.7733 23.4776C8.99001 20.2389 9.19314 17.6613 9.46875 14.4107Z" fill="#0F5716"/>
<path d="M11.1164 14.4239C11.392 11.1732 11.4817 8.54349 12.683 5.98892C13.8843 3.43434 18.2316 3.06763 19.0475 5.77933C19.8633 8.49103 17.7616 10.8882 18.0256 15.4818C18.2829 19.9583 20.7659 22.3218 18.9468 24.785C17.1277 27.2481 14.2043 26.7296 12.421 23.4908C10.6377 20.2521 10.8408 17.6745 11.1164 14.4239Z" fill="#1ACC2C"/>
<circle cx="14.7549" cy="6.91512" r="0.726165" transform="rotate(-1.88612 14.7549 6.91512)" fill="#0F5716"/>
<circle cx="16.9647" cy="9.52503" r="0.726165" transform="rotate(-1.88612 16.9647 9.52503)" fill="#0F5716"/>
<circle cx="13.4615" cy="11.7642" r="0.726165" transform="rotate(-1.88612 13.4615 11.7642)" fill="#0F5716"/>
<circle cx="13.5668" cy="18.8556" r="0.726165" transform="rotate(-1.88612 13.5668 18.8556)" fill="#0F5716"/>
<circle cx="15.9056" cy="14.7017" r="0.726165" transform="rotate(-1.88612 15.9056 14.7017)" fill="#0F5716"/>
<circle cx="15.0795" cy="23.5594" r="0.726165" transform="rotate(-1.88612 15.0795 23.5594)" fill="#0F5716"/>
<circle cx="16.8747" cy="20.3705" r="0.726165" transform="rotate(-1.88612 16.8747 20.3705)" fill="#0F5716"/>
</g>
<defs>
<clipPath id="clip0_2_2">
<rect width="30" height="30" fill="white"/>
</clipPath>
</defs>
</svg>
