<svg width="695" height="87" viewBox="0 0 695 87" fill="none" xmlns="http://www.w3.org/2000/svg">
<path d="M16.3407 84.306C20.6247 84.306 25.0107 84.204 27.7647 84C28.8867 83.898 29.6007 83.49 29.6007 81.96C29.6007 80.736 25.4187 62.376 25.4187 53.4C25.4187 52.074 25.8267 50.85 26.7447 50.85C27.3567 50.85 27.8667 51.258 28.4787 52.074C33.5787 59.826 37.5567 69.006 39.6987 81.042C40.1067 83.286 40.8207 83.694 43.1667 84C45.0027 84.204 47.6547 84.306 50.4087 84.306C54.7947 84.306 59.6907 84.204 62.5467 84C64.3827 83.898 65.5047 83.082 65.8107 81.042C66.7287 73.8 67.1367 63.906 67.1367 53.502C67.1367 36.978 66.1167 19.23 64.2807 8.316C63.9747 6.684 63.0567 6.07199 61.6287 5.97C59.0787 5.766 55.7127 5.664 52.2447 5.664C48.0627 5.664 43.8807 5.766 41.0247 5.97C39.8007 6.07199 39.0867 6.888 39.0867 8.112C39.0867 11.376 45.0027 24.942 45.0027 40.038C45.0027 40.956 44.4927 41.568 43.8807 41.568C43.4727 41.568 43.1667 41.364 42.8607 40.752C33.4767 20.76 28.8867 11.682 26.0307 7.704C25.2147 6.58199 24.3987 5.97 23.3787 5.97C21.2367 5.868 18.3807 5.766 15.4227 5.766C12.4647 5.766 9.4047 5.868 6.7527 5.97C5.3247 6.07199 4.4067 7.092 3.8967 8.41799C2.1627 13.518 0.734703 29.634 0.734703 47.382C0.734703 59.01 1.3467 71.454 2.8767 81.858C3.0807 83.286 3.9987 83.898 5.5287 84C8.3847 84.204 12.3627 84.306 16.3407 84.306ZM97.3271 63.396C94.1651 63.396 92.9411 59.622 92.9411 49.422C92.9411 39.63 94.4711 35.754 97.3271 35.754C100.183 35.754 101.713 39.63 101.713 49.422C101.713 59.316 100.591 63.396 97.3271 63.396ZM96.7151 85.53C111.709 85.53 124.051 75.228 124.051 51.258C124.051 30.348 116.401 17.19 98.3471 17.19C79.9871 17.19 70.8071 30.858 70.8071 51.258C70.8071 75.228 82.1291 85.53 96.7151 85.53ZM155.874 3.828C153.324 3.828 141.696 4.848 135.78 7.90799C134.556 8.52 133.842 9.642 133.74 10.56C132.924 16.476 132.924 18.924 130.17 18.924C129.66 18.924 129.354 18.822 128.844 18.822C127.824 18.822 127.008 19.332 126.702 21.27C126.09 24.84 125.478 31.368 125.478 36.774C125.478 37.998 125.58 39.12 125.682 39.936C125.886 41.16 126.498 41.874 127.314 41.874C127.722 41.874 128.13 41.772 128.64 41.772C129.66 41.772 130.068 42.486 130.068 44.118C130.068 46.77 129.864 51.258 129.864 55.848C129.966 67.578 131.394 80.94 133.23 85.53C133.638 86.652 134.454 86.958 135.882 86.958C141.798 86.958 153.222 84.714 157.812 81.552C158.526 81.042 159.036 80.532 159.036 79.716C159.036 79.104 158.628 78.288 158.424 77.472C156.078 69.006 153.222 58.296 153.222 47.994C153.222 46.668 153.222 45.342 153.324 44.118C153.426 42.384 153.834 41.16 155.568 41.16C156.792 41.16 157.914 41.568 158.832 41.568C159.546 41.568 160.158 41.262 160.362 40.344C161.076 37.08 161.382 33.306 161.382 29.838C161.382 26.166 161.076 22.8 160.668 20.658C160.362 19.434 159.852 18.72 158.934 18.72C158.016 18.72 156.69 19.23 156.078 19.23C154.548 19.23 154.038 18.72 154.038 17.7C154.038 13.62 156.69 7.194 157.098 5.97C157.506 4.848 157.098 3.828 155.874 3.828ZM212.926 65.13C212.926 59.928 211.804 56.97 210.274 56.97C209.764 56.97 209.152 57.276 208.438 57.888C204.154 61.254 196.708 63.906 190.078 63.906C186.712 63.906 185.386 62.988 185.386 61.458C185.386 59.826 186.916 59.112 190.894 58.092C199.972 55.746 212.11 52.278 212.11 35.142C212.11 23.106 203.746 17.19 192.424 17.19C176.614 17.19 162.946 27.39 162.946 54.114C162.946 70.434 169.168 85.53 188.752 85.53C201.502 85.53 212.926 78.084 212.926 65.13ZM192.628 37.59C192.628 40.65 189.16 42.384 186.508 43.812C185.692 44.22 184.876 44.526 184.06 44.526C183.244 44.526 183.04 43.812 183.04 42.894C183.04 38.406 185.998 34.326 189.262 34.326C191.506 34.326 192.628 35.856 192.628 37.59ZM219.435 57.174C219.027 56.664 218.517 56.46 218.007 56.46C217.395 56.46 216.885 56.868 216.477 57.582C215.661 59.01 214.437 62.376 214.437 67.272C214.437 79.206 224.025 85.53 238.203 85.53C252.177 85.53 261.765 78.288 261.765 63.09C261.765 49.32 249.525 44.322 241.059 40.752C236.673 38.916 235.245 38.1 235.245 36.57C235.245 35.448 236.061 34.632 238.203 34.632C242.997 34.632 250.341 38.712 254.625 41.976C255.033 42.282 255.543 42.486 256.053 42.486C256.767 42.486 257.379 42.078 257.787 41.058C259.521 36.774 261.153 29.328 261.153 24.432C261.153 22.8 260.847 21.78 259.215 20.862C255.543 18.822 248.097 17.19 240.957 17.19C225.351 17.19 215.151 24.738 215.151 38.304C215.151 51.462 224.229 55.746 233.613 60.132C237.591 61.968 239.223 63.09 239.223 64.722C239.223 66.048 238.509 66.66 236.571 66.66C230.553 66.66 223.107 61.254 219.435 57.174ZM305.468 84.102C313.73 84.102 325.562 84 329.234 83.286C330.968 82.98 331.886 81.858 331.886 80.022C331.886 77.982 331.172 71.148 331.172 64.824C331.172 56.154 331.58 45.444 331.58 41.568C331.58 25.962 325.052 17.19 306.59 17.19C290.168 17.19 280.682 22.902 280.682 31.062C280.682 36.57 283.028 40.65 285.476 42.894C285.884 43.302 286.394 43.506 286.904 43.506C287.414 43.506 288.128 43.2 288.74 42.588C294.146 37.998 299.858 35.856 305.162 35.856C308.528 35.856 309.344 36.978 309.344 37.998C309.344 39.732 307.304 40.14 303.938 40.65C292.514 42.384 280.58 47.994 280.58 63.6C280.58 78.288 289.556 84.102 305.468 84.102ZM309.548 60.54C309.548 63.702 308.834 65.028 306.692 65.028C304.244 65.028 302 63.192 302 60.03C302 56.562 304.856 54.012 307.61 54.012C309.242 54.012 309.548 54.828 309.548 58.194V60.54ZM375.672 17.7C367.818 17.7 364.86 23.412 361.29 23.412C360.168 23.412 359.556 22.902 359.556 21.372C359.556 19.842 358.842 19.026 356.7 18.822C355.272 18.72 353.13 18.618 350.886 18.618C348.234 18.618 345.276 18.72 342.93 18.924C339.87 19.23 337.524 20.25 337.32 23.82C336.606 33.306 336.402 42.282 336.402 50.442C336.402 62.172 336.912 72.372 337.524 80.43C337.728 83.286 338.952 83.898 340.89 84C343.236 84.102 346.398 84.204 349.764 84.204C352.314 84.204 354.966 84.102 357.414 84C359.352 83.898 360.27 83.184 360.27 81.348C360.27 77.778 358.842 65.844 358.842 48.402C358.842 43.608 359.046 41.16 360.27 39.936C360.78 39.426 361.494 39.222 362.31 39.222C364.248 39.222 365.472 41.466 365.472 47.586C365.472 57.684 364.248 76.044 364.248 81.858C364.248 83.082 364.86 83.898 366.696 84C369.45 84.204 372.51 84.204 375.672 84.204C378.834 84.204 381.894 84.204 384.036 84C385.668 83.898 386.79 82.878 387.096 80.736C387.708 76.248 389.238 59.622 389.238 43.302C389.238 24.738 385.158 17.7 375.672 17.7ZM420.906 67.884C418.662 67.884 417.438 64.416 417.438 51.666C417.438 38.406 418.764 35.448 420.906 35.448C423.456 35.448 424.476 38.406 424.476 48.3C424.476 64.824 423.15 67.884 420.906 67.884ZM420.294 84.612C432.738 84.612 439.266 83.184 442.836 81.858C444.876 81.042 445.998 79.614 446.202 77.982C447.324 70.536 447.732 59.724 447.732 48.402C447.732 31.266 446.712 13.11 445.59 4.746C445.182 1.686 443.958 1.176 441.918 0.971999C438.348 0.665997 434.472 0.563998 430.8 0.563998C428.352 0.563998 426.006 0.665997 423.762 0.767995C422.13 0.869994 420.906 1.686 420.906 3.114C420.906 4.95 423.66 17.394 423.66 21.78C423.66 22.698 423.15 23.106 422.538 23.106C422.232 23.106 421.926 23.004 421.62 22.698C419.478 20.454 415.806 17.292 411.012 17.292C400.608 17.292 393.366 31.47 393.366 54.522C393.366 76.656 401.322 84.612 420.294 84.612ZM515.361 31.878C515.769 32.184 516.381 32.388 516.891 32.388C517.503 32.388 517.911 32.184 518.319 31.674C521.991 27.084 526.275 18.312 526.275 14.742C526.275 13.824 525.867 12.906 524.949 12.192C518.931 7.602 510.057 4.542 499.245 4.542C480.681 4.542 470.583 15.456 470.583 29.328C470.583 43.812 481.395 50.442 493.839 54.624C500.673 56.868 502.509 57.99 502.509 60.03C502.509 61.866 501.081 62.886 497.715 62.886C491.085 62.886 482.517 57.888 476.703 50.136C476.295 49.524 475.785 49.218 475.173 49.218C474.765 49.218 474.357 49.32 473.847 49.728C471.093 52.074 469.053 56.46 469.053 63.192C469.053 77.778 480.579 85.53 497.715 85.53C518.523 85.53 528.009 73.698 528.009 59.826C528.009 46.056 521.175 38.916 503.835 32.796C498.327 30.858 496.083 29.226 496.083 26.676C496.083 25.248 497.001 24.024 499.449 24.024C503.733 24.024 509.445 26.88 515.361 31.878ZM547.837 85.02C555.283 85.02 559.567 79.308 562.933 79.308C564.055 79.308 564.667 79.818 564.667 81.348C564.667 82.98 565.381 83.694 567.523 83.898C568.543 84 570.073 84.102 571.705 84.102C573.949 84.102 576.601 84 578.641 83.796C581.701 83.49 584.047 82.47 584.251 78.9C585.067 67.374 585.475 57.378 585.475 48.198C585.475 38.814 585.067 30.552 584.047 22.29C583.741 19.434 582.619 18.822 580.681 18.72C578.233 18.516 574.765 18.414 571.399 18.414C568.747 18.414 566.299 18.516 564.361 18.72C562.219 18.924 561.301 19.74 561.505 21.882C561.607 23.82 562.729 34.53 562.729 54.318C562.729 59.112 562.321 61.56 561.097 62.784C560.587 63.294 559.975 63.498 559.261 63.498C557.323 63.498 556.099 61.254 556.099 55.134C556.099 42.384 557.221 24.84 557.221 21.168C557.221 19.74 556.711 18.924 554.773 18.72C552.427 18.516 549.571 18.414 546.511 18.414C543.451 18.414 540.187 18.516 537.535 18.72C535.903 18.924 534.781 19.842 534.475 21.984C533.863 26.472 532.333 43.098 532.333 50.238C532.333 77.982 536.515 85.02 547.837 85.02ZM613.346 85.53C629.258 85.53 636.704 75.636 636.704 64.008C636.704 58.602 634.766 54.828 632.93 52.89C632.318 52.278 631.91 52.176 631.604 52.176C631.094 52.176 630.584 52.38 630.278 52.992C628.034 56.766 624.158 61.458 618.344 61.458C613.244 61.458 612.02 56.664 612.02 49.728C612.02 41.874 613.346 37.59 615.488 37.59C618.14 37.59 618.038 43.098 618.344 48.708C618.446 49.83 619.058 50.238 620.588 50.238C627.524 50.238 636.296 44.322 636.296 35.958C636.296 25.452 630.176 17.19 617.528 17.19C601.514 17.19 589.274 29.226 589.274 54.624C589.274 71.964 596.414 85.53 613.346 85.53ZM656.431 0.665997C652.759 0.665997 648.985 0.767995 645.823 1.074C644.803 1.176 643.579 2.29799 643.273 4.23599C640.519 23.208 639.601 44.73 639.601 60.336C639.601 71.658 640.111 79.92 640.621 82.062C641.029 83.694 642.151 83.898 642.967 84C645.823 84.204 649.291 84.306 652.657 84.306C656.125 84.306 659.389 84.204 661.735 84C662.959 83.898 664.591 83.592 664.591 81.45C664.591 78.798 663.775 70.944 663.775 52.788C663.775 42.894 664.999 39.834 667.855 39.834C670.099 39.834 671.017 41.466 671.017 51.36C671.017 63.498 668.569 78.9 668.569 81.348C668.569 83.49 669.895 83.796 671.017 83.898C674.077 84.102 678.259 84.204 682.033 84.204C685.297 84.204 688.153 84.102 689.683 84.102C691.009 84 692.029 83.286 692.335 81.45C693.559 74.616 694.987 60.336 694.987 45.648C694.987 23.82 688.765 17.19 679.075 17.19C671.323 17.19 666.937 21.78 665.101 21.78C663.979 21.78 663.367 21.066 663.367 19.434C663.367 12.702 667.243 5.358 667.243 3.21599C667.243 2.196 666.733 1.27799 665.611 1.074C663.061 0.665997 659.797 0.665997 656.431 0.665997Z" fill="black"/>
</svg>
