<svg width="690" height="120" viewBox="0 0 690 120" fill="none" xmlns="http://www.w3.org/2000/svg">
<path d="M23.4914 116.27C30.1064 116.27 36.7214 116.135 38.4764 116C40.9064 115.73 42.1214 114.92 42.1214 113.165C42.1214 110.87 37.8014 101.96 37.8014 95.75C37.8014 90.62 40.9064 89 45.9014 89C49.9514 89 54.1364 89.945 55.3514 89.945C56.1614 89.945 56.8364 89.675 57.1064 88.595C58.9964 80.9 60.3464 66.86 60.3464 58.355C60.3464 56.33 58.7264 55.79 54.6764 55.79C46.7114 55.79 43.0664 58.22 38.8814 58.22C36.5864 58.22 34.4264 57.275 34.4264 53.765C34.4264 50.795 35.2364 48.905 36.4514 47.69C37.6664 46.475 39.2864 46.07 40.9064 46.07C45.0914 46.07 48.8714 47.42 52.2464 48.905C53.4614 49.445 54.2714 49.85 55.2164 49.85C55.8914 49.85 56.7014 49.445 57.1064 48.635C60.6164 41.615 63.5864 23.12 63.5864 16.235C63.5864 14.885 63.1814 13.805 60.8864 13.535C53.7314 12.725 45.7664 12.59 36.4514 12.59C26.8664 12.59 17.2814 12.86 9.45139 13.67C7.96639 13.805 6.34639 14.48 5.94139 16.235C2.02639 32.705 0.541387 53.495 0.541387 71.855C0.541387 90.89 1.89139 107.09 3.91639 112.76C4.72639 115.055 5.40139 115.865 7.83139 116C10.2614 116.135 16.8764 116.27 23.4914 116.27ZM103.546 113.165C103.546 109.25 100.306 82.385 100.306 57.95C100.306 36.89 102.871 10.7 102.871 8.40499C102.871 6.51499 101.521 5.705 99.3614 5.57C95.4464 5.29999 91.3964 5.16499 87.2114 5.16499C83.1614 5.16499 79.1114 5.29999 75.0614 5.57C73.3064 5.705 71.5514 6.245 71.1464 9.07999C68.3114 28.79 66.9614 52.55 66.9614 74.555C66.9614 88.055 67.3664 101.015 68.4464 112.085C68.7164 115.19 70.8764 115.865 72.2264 116C76.5464 116.27 81.5414 116.405 86.5364 116.405C91.6664 116.405 96.6614 116.27 100.846 116C102.331 115.865 103.546 114.92 103.546 113.165ZM138.99 116.135C149.925 116.135 165.585 116 170.445 115.055C172.74 114.65 173.955 113.165 173.955 110.735C173.955 108.035 173.01 98.99 173.01 90.62C173.01 79.145 173.55 64.97 173.55 59.84C173.55 39.185 164.91 27.575 140.475 27.575C118.74 27.575 106.185 35.135 106.185 45.935C106.185 53.225 109.29 58.625 112.53 61.595C113.07 62.135 113.745 62.405 114.42 62.405C115.095 62.405 116.04 62 116.85 61.19C124.005 55.115 131.565 52.28 138.585 52.28C143.04 52.28 144.12 53.765 144.12 55.115C144.12 57.41 141.42 57.95 136.965 58.625C121.845 60.92 106.05 68.345 106.05 89C106.05 108.44 117.93 116.135 138.99 116.135ZM144.39 84.95C144.39 89.135 143.445 90.89 140.61 90.89C137.37 90.89 134.4 88.46 134.4 84.275C134.4 79.685 138.18 76.31 141.825 76.31C143.985 76.31 144.39 77.39 144.39 81.845V84.95ZM217.327 9.89C213.952 9.89 198.562 11.24 190.732 15.29C189.112 16.1 188.167 17.585 188.032 18.8C186.952 26.63 186.952 29.87 183.307 29.87C182.632 29.87 182.227 29.735 181.552 29.735C180.202 29.735 179.122 30.41 178.717 32.975C177.907 37.7 177.097 46.34 177.097 53.495C177.097 55.115 177.232 56.6 177.367 57.68C177.637 59.3 178.447 60.245 179.527 60.245C180.067 60.245 180.607 60.11 181.282 60.11C182.632 60.11 183.172 61.055 183.172 63.215C183.172 66.725 182.902 72.665 182.902 78.74C183.037 94.265 184.927 111.95 187.357 118.025C187.897 119.51 188.977 119.915 190.867 119.915C198.697 119.915 213.817 116.945 219.892 112.76C220.837 112.085 221.512 111.41 221.512 110.33C221.512 109.52 220.972 108.44 220.702 107.36C217.597 96.155 213.817 81.98 213.817 68.345C213.817 66.59 213.817 64.835 213.952 63.215C214.087 60.92 214.627 59.3 216.922 59.3C218.542 59.3 220.027 59.84 221.242 59.84C222.187 59.84 222.997 59.435 223.267 58.22C224.212 53.9 224.617 48.905 224.617 44.315C224.617 39.455 224.212 35 223.672 32.165C223.267 30.545 222.592 29.6 221.377 29.6C220.162 29.6 218.407 30.275 217.597 30.275C215.572 30.275 214.897 29.6 214.897 28.25C214.897 22.85 218.407 14.345 218.947 12.725C219.487 11.24 218.947 9.89 217.327 9.89ZM288.635 67.13C286.475 67.13 285.53 64.7 285.53 58.625C285.53 45.53 287.15 39.05 289.58 36.62C290.39 35.81 291.335 35.405 292.28 35.405C294.845 35.405 296.735 38.51 296.735 45.125C296.735 54.035 294.035 62.81 290.795 66.05C290.12 66.725 289.445 67.13 288.635 67.13ZM274.46 116.27C280.4 116.27 286.205 116.135 290.12 115.865C291.74 115.73 292.685 115.055 292.685 113.57C292.685 111.815 290.12 105.875 290.12 101.285C290.12 96.425 293.225 93.59 300.92 89.405C312.665 82.925 327.92 72.53 327.92 46.88C327.92 36.485 326.165 27.98 320.36 22.175C312.53 14.345 303.62 12.32 281.075 12.32C274.19 12.32 267.035 12.455 262.445 12.86C260.42 12.995 259.205 14.075 258.8 15.695C254.615 34.055 253.265 54.035 253.265 71.585C253.265 87.92 254.615 102.5 256.775 112.625C257.315 115.325 258.8 115.73 260.69 115.865C264.875 116.135 269.735 116.27 274.46 116.27ZM368.926 113.435C368.926 107.9 364.471 86.435 364.471 55.52C364.471 47.015 365.146 35.945 365.146 32.705C365.146 30.95 363.931 29.87 361.636 29.735C357.721 29.465 354.211 29.33 350.701 29.33C347.326 29.33 343.816 29.465 339.766 29.735C338.011 29.87 336.391 30.41 335.851 33.245C333.286 47.285 332.071 64.97 332.071 81.71C332.071 92.645 332.611 103.175 333.691 112.085C334.096 115.19 336.121 115.865 337.471 116C341.791 116.27 346.786 116.405 351.916 116.405C357.046 116.405 362.041 116.27 366.226 116C367.711 115.865 368.926 115.19 368.926 113.435ZM351.241 26.495C364.201 26.495 369.331 21.905 369.331 13.535C369.331 5.03 364.201 0.0349963 351.241 0.0349963C338.821 0.0349963 333.151 5.03 333.151 13.535C333.151 21.905 338.821 26.495 351.241 26.495ZM403.434 118.025C424.494 118.025 434.349 104.93 434.349 89.54C434.349 82.385 431.784 77.39 429.354 74.825C428.544 74.015 428.004 73.88 427.599 73.88C426.924 73.88 426.249 74.15 425.844 74.96C422.874 79.955 417.744 86.165 410.049 86.165C403.299 86.165 401.679 79.82 401.679 70.64C401.679 60.245 403.434 54.575 406.269 54.575C409.779 54.575 409.644 61.865 410.049 69.29C410.184 70.775 410.994 71.315 413.019 71.315C422.199 71.315 433.809 63.485 433.809 52.415C433.809 38.51 425.709 27.575 408.969 27.575C387.774 27.575 371.574 43.505 371.574 77.12C371.574 100.07 381.024 118.025 403.434 118.025ZM474.768 113.3C474.768 110.195 470.043 95.885 470.043 87.92C470.043 83.6 470.988 80.9 473.148 80.9C477.873 80.9 481.923 93.32 482.733 111.815C482.868 115.325 483.678 115.73 487.323 116C490.833 116.27 495.558 116.27 500.013 116.27C504.603 116.27 508.923 116.27 511.488 116C514.863 115.73 515.268 114.785 515.268 111.68C515.268 86.57 507.843 77.93 499.608 70.64C498.798 69.83 498.393 69.29 498.393 68.615C498.393 67.94 498.798 67.265 499.608 66.32C503.658 61.595 512.433 47.69 512.433 33.11C512.433 30.41 511.083 29.87 509.463 29.735C507.033 29.6 501.093 29.465 495.423 29.465C490.698 29.465 486.108 29.6 483.543 29.735C481.518 29.87 480.438 30.545 480.303 32.84C479.628 49.445 476.523 63.89 471.258 63.89C469.908 63.89 469.233 62.675 469.233 60.65C469.233 42.56 474.093 9.75499 474.093 8.26999C474.093 6.51499 472.743 5.705 470.583 5.57C466.668 5.29999 462.348 5.16499 458.163 5.16499C453.978 5.16499 449.928 5.29999 446.283 5.57C444.528 5.705 442.773 6.245 442.368 9.07999C439.803 28.655 438.858 52.55 438.858 74.555C438.858 88.055 438.858 101.015 439.668 112.085C439.938 115.19 442.098 115.865 443.448 116C447.768 116.27 452.763 116.405 457.893 116.405C462.888 116.405 468.018 116.27 472.068 116C473.688 115.865 474.768 114.92 474.768 113.3ZM556.271 113.165C556.271 109.25 553.031 82.385 553.031 57.95C553.031 36.89 555.596 10.7 555.596 8.40499C555.596 6.51499 554.246 5.705 552.086 5.57C548.171 5.29999 544.121 5.16499 539.936 5.16499C535.886 5.16499 531.836 5.29999 527.786 5.57C526.031 5.705 524.276 6.245 523.871 9.07999C521.036 28.79 519.686 52.55 519.686 74.555C519.686 88.055 520.091 101.015 521.171 112.085C521.441 115.19 523.601 115.865 524.951 116C529.271 116.27 534.266 116.405 539.261 116.405C544.391 116.405 549.386 116.27 553.571 116C555.056 115.865 556.271 114.92 556.271 113.165ZM625.195 91.025C625.195 84.14 623.71 80.225 621.685 80.225C621.01 80.225 620.2 80.63 619.255 81.44C613.585 85.895 603.73 89.405 594.955 89.405C590.5 89.405 588.745 88.19 588.745 86.165C588.745 84.005 590.77 83.06 596.035 81.71C608.05 78.605 624.115 74.015 624.115 51.335C624.115 35.405 613.045 27.575 598.06 27.575C577.135 27.575 559.045 41.075 559.045 76.445C559.045 98.045 567.28 118.025 593.2 118.025C610.075 118.025 625.195 108.17 625.195 91.025ZM598.33 54.575C598.33 58.625 593.74 60.92 590.23 62.81C589.15 63.35 588.07 63.755 586.99 63.755C585.91 63.755 585.64 62.81 585.64 61.595C585.64 55.655 589.555 50.255 593.875 50.255C596.845 50.255 598.33 52.28 598.33 54.575ZM633.81 80.495C633.27 79.82 632.595 79.55 631.92 79.55C631.11 79.55 630.435 80.09 629.895 81.035C628.815 82.925 627.195 87.38 627.195 93.86C627.195 109.655 639.885 118.025 658.65 118.025C677.145 118.025 689.835 108.44 689.835 88.325C689.835 70.1 673.635 63.485 662.43 58.76C656.625 56.33 654.735 55.25 654.735 53.225C654.735 51.74 655.815 50.66 658.65 50.66C664.995 50.66 674.715 56.06 680.385 60.38C680.925 60.785 681.6 61.055 682.275 61.055C683.22 61.055 684.03 60.515 684.57 59.165C686.865 53.495 689.025 43.64 689.025 37.16C689.025 35 688.62 33.65 686.46 32.435C681.6 29.735 671.745 27.575 662.295 27.575C641.64 27.575 628.14 37.565 628.14 55.52C628.14 72.935 640.155 78.605 652.575 84.41C657.84 86.84 660 88.325 660 90.485C660 92.24 659.055 93.05 656.49 93.05C648.525 93.05 638.67 85.895 633.81 80.495Z" fill="black"/>
</svg>
