<svg width="693" height="109" viewBox="0 0 693 109" fill="none" xmlns="http://www.w3.org/2000/svg">
<path d="M38.7824 103.17C38.7824 99.876 31.9504 83.65 31.9504 67.668C31.9504 63.032 32.0724 57.664 33.1704 52.174C33.2924 51.686 33.6584 51.32 34.1464 51.32C34.6344 51.32 35.1224 51.686 35.3664 52.418C37.5624 60.226 41.7104 74.378 46.8344 84.504C47.4444 85.846 48.5424 86.578 49.6404 86.578C50.7384 86.578 51.8364 85.968 52.4464 84.504C56.9604 74.378 61.3524 62.666 64.7684 52.174C64.8904 51.686 65.2564 51.32 65.7444 51.32C66.2324 51.32 66.5984 51.564 66.7204 52.174C67.6964 56.322 67.9404 60.592 67.9404 64.984C67.9404 83.528 61.1084 97.802 61.1084 102.926C61.1084 104.146 61.5964 104.756 63.1824 105C66.5984 105.366 71.7224 105.61 77.3344 105.61C84.6544 105.61 92.2184 105.366 96.0004 105C97.4644 104.878 98.6844 103.902 98.9284 101.95C100.88 88.042 101.856 74.866 101.856 62.422C101.856 45.952 100.026 29.848 96.2444 15.086C95.8784 13.5 94.2924 12.402 92.0964 12.158C87.8264 11.792 83.4344 11.548 79.0424 11.548C74.4064 11.548 69.8924 11.792 65.8664 12.158C64.1584 12.28 62.3284 13.744 61.4744 15.452C59.1564 20.088 55.3744 29.604 52.4464 38.998C52.2024 39.73 51.8364 40.096 51.2264 40.096C50.6164 40.096 50.1284 39.608 49.8844 38.754C47.2004 29.97 43.4184 19.478 40.8564 14.72C39.7584 12.646 38.1724 11.914 35.7324 11.792C32.4384 11.548 27.6804 11.426 22.8004 11.426C16.7004 11.426 10.4784 11.548 7.06238 11.792C5.96438 11.792 4.62238 12.402 4.37838 14.476C1.93838 31.678 0.596383 47.904 0.596383 63.154C0.596383 77.306 1.69438 90.726 4.01238 102.926C4.25638 104.146 5.23238 105 6.33038 105C11.2104 105.244 16.8224 105.366 22.1904 105.366C27.6804 105.366 32.6824 105.244 36.4644 105C37.9284 104.878 38.7824 104.39 38.7824 103.17ZM136.212 105.122C146.094 105.122 160.246 105 164.638 104.146C166.712 103.78 167.81 102.438 167.81 100.242C167.81 97.802 166.956 89.628 166.956 82.064C166.956 71.694 167.444 58.884 167.444 54.248C167.444 35.582 159.636 25.09 137.554 25.09C117.912 25.09 106.566 31.922 106.566 41.682C106.566 48.27 109.372 53.15 112.3 55.834C112.788 56.322 113.398 56.566 114.008 56.566C114.618 56.566 115.472 56.2 116.204 55.468C122.67 49.978 129.502 47.416 135.846 47.416C139.872 47.416 140.848 48.758 140.848 49.978C140.848 52.052 138.408 52.54 134.382 53.15C120.718 55.224 106.444 61.934 106.444 80.6C106.444 98.168 117.18 105.122 136.212 105.122ZM141.092 76.94C141.092 80.722 140.238 82.308 137.676 82.308C134.748 82.308 132.064 80.112 132.064 76.33C132.064 72.182 135.48 69.132 138.774 69.132C140.726 69.132 141.092 70.108 141.092 74.134V76.94ZM207.005 9.108C203.955 9.108 190.047 10.328 182.971 13.988C181.507 14.72 180.653 16.062 180.531 17.16C179.555 24.236 179.555 27.164 176.261 27.164C175.651 27.164 175.285 27.042 174.675 27.042C173.455 27.042 172.479 27.652 172.113 29.97C171.381 34.24 170.649 42.048 170.649 48.514C170.649 49.978 170.771 51.32 170.893 52.296C171.137 53.76 171.869 54.614 172.845 54.614C173.333 54.614 173.821 54.492 174.431 54.492C175.651 54.492 176.139 55.346 176.139 57.298C176.139 60.47 175.895 65.838 175.895 71.328C176.017 85.358 177.725 101.34 179.921 106.83C180.409 108.172 181.385 108.538 183.093 108.538C190.169 108.538 203.833 105.854 209.323 102.072C210.177 101.462 210.787 100.852 210.787 99.876C210.787 99.144 210.299 98.168 210.055 97.192C207.249 87.066 203.833 74.256 203.833 61.934C203.833 60.348 203.833 58.762 203.955 57.298C204.077 55.224 204.565 53.76 206.639 53.76C208.103 53.76 209.445 54.248 210.543 54.248C211.397 54.248 212.129 53.882 212.373 52.784C213.227 48.88 213.593 44.366 213.593 40.218C213.593 35.826 213.227 31.8 212.739 29.238C212.373 27.774 211.763 26.92 210.665 26.92C209.567 26.92 207.981 27.53 207.249 27.53C205.419 27.53 204.809 26.92 204.809 25.7C204.809 20.82 207.981 13.134 208.469 11.67C208.957 10.328 208.469 9.108 207.005 9.108ZM225.589 13.988C223.393 15.208 223.271 16.306 222.661 21.064C222.173 25.09 222.051 27.164 220.587 27.164H218.879C217.903 27.164 217.171 27.774 216.927 29.482C215.951 38.022 215.707 44.854 215.707 51.808C215.707 53.15 216.561 54.004 217.659 54.37C218.147 54.492 218.635 54.614 219.367 54.858C220.099 55.102 220.343 55.468 220.343 56.444C220.343 59.738 218.635 69.986 218.635 83.162C218.635 93.166 219.855 101.462 222.539 106.83C223.149 108.05 223.759 108.538 225.223 108.538C231.445 108.538 246.329 105.976 251.941 102.072C252.795 101.462 253.405 100.852 253.405 99.876C253.405 99.51 253.283 99.144 253.161 98.656C249.989 89.262 246.329 75.476 246.329 63.032C246.329 61.446 246.451 59.86 246.573 58.274C246.939 54.736 247.427 53.76 249.257 53.76C250.721 53.76 252.063 54.248 253.161 54.248C254.015 54.248 254.747 53.882 254.991 52.784C255.845 48.88 256.211 44.488 256.211 40.34C256.211 35.948 255.845 31.8 255.357 29.238C254.991 27.774 254.381 26.92 253.283 26.92C252.185 26.92 250.599 27.53 249.257 27.53C248.037 27.53 247.427 26.92 247.427 25.7C247.427 19.6 251.331 12.524 251.331 10.694C251.331 9.84 250.721 9.108 249.623 9.108C246.573 9.108 232.543 10.084 225.589 13.988ZM300.315 105.366C305.439 105.366 310.685 105.244 313.979 105C315.321 104.878 316.175 104.39 316.175 102.56C316.175 101.096 311.173 79.136 311.173 68.4C311.173 66.814 311.661 65.35 312.759 65.35C313.491 65.35 314.101 65.838 314.833 66.814C320.933 76.086 325.691 87.066 328.253 101.462C328.741 104.146 329.595 104.634 332.401 105C334.597 105.244 337.769 105.366 341.063 105.366C346.309 105.366 352.165 105.244 355.581 105C357.777 104.878 359.119 103.902 359.485 101.462C360.583 92.8 361.071 80.966 361.071 68.522C361.071 48.758 359.851 27.53 357.655 14.476C357.289 12.524 356.191 11.792 354.483 11.67C351.433 11.426 347.407 11.304 343.259 11.304C338.257 11.304 333.255 11.426 329.839 11.67C328.375 11.792 327.521 12.768 327.521 14.232C327.521 18.136 334.597 34.362 334.597 52.418C334.597 53.516 333.987 54.248 333.255 54.248C332.767 54.248 332.401 54.004 332.035 53.272C320.811 29.36 315.321 18.502 311.905 13.744C310.929 12.402 309.953 11.67 308.733 11.67C306.171 11.548 302.755 11.426 299.217 11.426C295.679 11.426 292.019 11.548 288.847 11.67C287.139 11.792 286.041 13.012 285.431 14.598C283.357 20.698 281.649 39.974 281.649 61.202C281.649 75.11 282.381 89.994 284.211 102.438C284.455 104.146 285.553 104.878 287.383 105C290.799 105.244 295.557 105.366 300.315 105.366ZM400.597 102.682C400.597 97.68 396.571 78.282 396.571 50.344C396.571 42.658 397.181 32.654 397.181 29.726C397.181 28.14 396.083 27.164 394.009 27.042C390.471 26.798 387.299 26.676 384.127 26.676C381.077 26.676 377.905 26.798 374.245 27.042C372.659 27.164 371.195 27.652 370.707 30.214C368.389 42.902 367.291 58.884 367.291 74.012C367.291 83.894 367.779 93.41 368.755 101.462C369.121 104.268 370.951 104.878 372.171 105C376.075 105.244 380.589 105.366 385.225 105.366C389.861 105.366 394.375 105.244 398.157 105C399.499 104.878 400.597 104.268 400.597 102.682ZM384.615 24.114C396.327 24.114 400.963 19.966 400.963 12.402C400.963 4.716 396.327 0.201997 384.615 0.201997C373.391 0.201997 368.267 4.716 368.267 12.402C368.267 19.966 373.391 24.114 384.615 24.114ZM431.783 106.83C450.815 106.83 459.721 94.996 459.721 81.088C459.721 74.622 457.403 70.108 455.207 67.79C454.475 67.058 453.987 66.936 453.621 66.936C453.011 66.936 452.401 67.18 452.035 67.912C449.351 72.426 444.715 78.038 437.761 78.038C431.661 78.038 430.197 72.304 430.197 64.008C430.197 54.614 431.783 49.49 434.345 49.49C437.517 49.49 437.395 56.078 437.761 62.788C437.883 64.13 438.615 64.618 440.445 64.618C448.741 64.618 459.233 57.542 459.233 47.538C459.233 34.972 451.913 25.09 436.785 25.09C417.631 25.09 402.991 39.486 402.991 69.864C402.991 90.604 411.531 106.83 431.783 106.83ZM483.315 5.326C478.923 5.326 474.409 5.44799 470.627 5.814C469.407 5.936 467.943 7.27799 467.577 9.59599C464.283 32.288 463.185 58.03 463.185 76.696C463.185 90.238 463.795 100.12 464.405 102.682C464.893 104.634 466.235 104.878 467.211 105C470.627 105.244 474.775 105.366 478.801 105.366C482.949 105.366 486.853 105.244 489.659 105C491.123 104.878 493.075 104.512 493.075 101.95C493.075 98.778 492.099 89.384 492.099 67.668C492.099 55.834 493.563 52.174 496.979 52.174C499.663 52.174 500.761 54.126 500.761 65.96C500.761 80.478 497.833 98.9 497.833 101.828C497.833 104.39 499.419 104.756 500.761 104.878C504.421 105.122 509.423 105.244 513.937 105.244C517.841 105.244 521.257 105.122 523.087 105.122C524.673 105 525.893 104.146 526.259 101.95C527.723 93.776 529.431 76.696 529.431 59.128C529.431 33.02 521.989 25.09 510.399 25.09C501.127 25.09 495.881 30.58 493.685 30.58C492.343 30.58 491.611 29.726 491.611 27.774C491.611 19.722 496.247 10.938 496.247 8.37599C496.247 7.15599 495.637 6.05799 494.295 5.814C491.245 5.326 487.341 5.326 483.315 5.326ZM564.216 80.356C560.434 80.356 558.97 75.842 558.97 63.642C558.97 51.93 560.8 47.294 564.216 47.294C567.632 47.294 569.462 51.93 569.462 63.642C569.462 75.476 568.12 80.356 564.216 80.356ZM563.484 106.83C581.418 106.83 596.18 94.508 596.18 65.838C596.18 40.828 587.03 25.09 565.436 25.09C543.476 25.09 532.496 41.438 532.496 65.838C532.496 94.508 546.038 106.83 563.484 106.83ZM633.999 102.438C633.999 98.9 631.071 74.622 631.071 52.54C631.071 33.508 633.389 9.84 633.389 7.76599C633.389 6.05799 632.169 5.326 630.217 5.204C626.679 4.95999 623.019 4.838 619.237 4.838C615.577 4.838 611.917 4.95999 608.257 5.204C606.671 5.326 605.085 5.814 604.719 8.37599C602.157 26.188 600.937 47.66 600.937 67.546C600.937 79.746 601.303 91.458 602.279 101.462C602.523 104.268 604.475 104.878 605.695 105C609.599 105.244 614.113 105.366 618.627 105.366C623.263 105.366 627.777 105.244 631.559 105C632.901 104.878 633.999 104.024 633.999 102.438ZM642.118 72.914C641.63 72.304 641.02 72.06 640.41 72.06C639.678 72.06 639.068 72.548 638.58 73.402C637.604 75.11 636.14 79.136 636.14 84.992C636.14 99.266 647.608 106.83 664.566 106.83C681.28 106.83 692.748 98.168 692.748 79.99C692.748 63.52 678.108 57.542 667.982 53.272C662.736 51.076 661.028 50.1 661.028 48.27C661.028 46.928 662.004 45.952 664.566 45.952C670.3 45.952 679.084 50.832 684.208 54.736C684.696 55.102 685.306 55.346 685.916 55.346C686.77 55.346 687.502 54.858 687.99 53.638C690.064 48.514 692.016 39.608 692.016 33.752C692.016 31.8 691.65 30.58 689.698 29.482C685.306 27.042 676.4 25.09 667.86 25.09C649.194 25.09 636.994 34.118 636.994 50.344C636.994 66.082 647.852 71.206 659.076 76.452C663.834 78.648 665.786 79.99 665.786 81.942C665.786 83.528 664.932 84.26 662.614 84.26C655.416 84.26 646.51 77.794 642.118 72.914Z" fill="black"/>
</svg>
